<svg width="7" height="7" viewBox="0 0 7 7" fill="none" xmlns="http://www.w3.org/2000/svg">
<path d="M3.63962 6.79041C3.45189 6.79041 3.30682 6.73921 3.20442 6.63681C3.10202 6.52588 3.05082 6.37655 3.05082 6.18881V4.08961H0.990022C0.810822 4.08961 0.670022 4.04268 0.567622 3.94881C0.465222 3.84641 0.414022 3.70561 0.414022 3.52641C0.414022 3.34721 0.465222 3.21068 0.567622 3.11681C0.670022 3.01441 0.810822 2.96321 0.990022 2.96321H3.05082V0.928012C3.05082 0.740279 3.10202 0.595212 3.20442 0.492811C3.30682 0.390412 3.45616 0.339212 3.65242 0.339212C3.84016 0.339212 3.98096 0.390412 4.07482 0.492811C4.17722 0.595212 4.22842 0.740279 4.22842 0.928012V2.96321H6.28922C6.47696 2.96321 6.61776 3.01441 6.71162 3.11681C6.81402 3.21068 6.86522 3.34721 6.86522 3.52641C6.86522 3.70561 6.81402 3.84641 6.71162 3.94881C6.61776 4.04268 6.47696 4.08961 6.28922 4.08961H4.22842V6.18881C4.22842 6.37655 4.17722 6.52588 4.07482 6.63681C3.98096 6.73921 3.83589 6.79041 3.63962 6.79041Z" fill="white"/>
</svg>
